<?xml version="1.0" encoding="UTF-8" standalone="no"?>
<svg
   xmlns:dc="http://purl.org/dc/elements/1.1/"
   xmlns:cc="http://creativecommons.org/ns#"
   xmlns:rdf="http://www.w3.org/1999/02/22-rdf-syntax-ns#"
   xmlns:svg="http://www.w3.org/2000/svg"
   xmlns="http://www.w3.org/2000/svg"
   xmlns:sodipodi="http://sodipodi.sourceforge.net/DTD/sodipodi-0.dtd"
   xmlns:inkscape="http://www.inkscape.org/namespaces/inkscape"
   inkscape:export-ydpi="96"
   inkscape:export-xdpi="96"
   inkscape:export-filename="D:\projects\wordpress\TG SMS Notify\assets\icon-128X128.png"
   sodipodi:docname="icon.svg"
   inkscape:version="1.0 (4035a4fb49, 2020-05-01)"
   id="svg8"
   version="1.1"
   viewBox="0 0 33.866666 33.866668"
   height="128"
   width="128">
  <defs
     id="defs2">
    <rect
       id="rect893"
       height="27.214287"
       width="41.199406"
       y="100.16369"
       x="-24.190475" />
    <rect
       x="-24.190475"
       y="100.16369"
       width="41.199406"
       height="27.214287"
       id="rect929" />
    <rect
       x="-24.190475"
       y="100.16369"
       width="41.199406"
       height="27.214287"
       id="rect935" />
    <rect
       id="rect941"
       height="27.214287"
       width="41.199406"
       y="100.16369"
       x="-24.190475" />
  </defs>
  <sodipodi:namedview
     inkscape:window-maximized="1"
     inkscape:window-y="-4"
     inkscape:window-x="-4"
     inkscape:window-height="705"
     inkscape:window-width="1366"
     units="px"
     showgrid="false"
     inkscape:document-rotation="0"
     inkscape:current-layer="layer1"
     inkscape:document-units="mm"
     inkscape:cy="78.211247"
     inkscape:cx="115.52549"
     inkscape:zoom="2.8"
     inkscape:pageshadow="2"
     inkscape:pageopacity="0.0"
     borderopacity="1.0"
     bordercolor="#666666"
     pagecolor="#ffffff"
     id="base" />
  <metadata
     id="metadata5">
    <rdf:RDF>
      <cc:Work
         rdf:about="">
        <dc:format>image/svg+xml</dc:format>
        <dc:type
           rdf:resource="http://purl.org/dc/dcmitype/StillImage" />
        <dc:title></dc:title>
      </cc:Work>
    </rdf:RDF>
  </metadata>
  <g
     id="layer1"
     inkscape:groupmode="layer"
     inkscape:label="Layer 1">
    <rect
       y="8.9009603e-07"
       x="8.9009603e-07"
       height="33.866665"
       width="33.866665"
       id="rect897"
       style="fill:#ffffff;stroke-width:0.220748" />
    <g
       transform="matrix(0.22406453,0,0,0.22406453,4.2736874,19.088421)"
       id="g847"
       style="fill:none">
      <path
         fill-rule="evenodd"
         clip-rule="evenodd"
         d="M 34.7091,0 H 3.55239 C 1.58064,0 -0.0155347,1.61182 1.14089e-4,3.56792 V 15.461 c 0,1.9717 1.596175911,3.5679 3.567925911,3.5679 H 18.3248 l 6.7447,3.7557 -1.5336,-3.7557 h 11.1732 c 1.9718,0 3.5679,-1.5962 3.5679,-3.5679 V 3.56792 C 38.277,1.59617 36.6809,0 34.7091,0 Z M 2.89521,2.75418 C 2.45704,2.78548 2.12841,2.94197 1.90933,3.23929 1.69025,3.52097 1.61201,3.88089 1.65895,4.28776 2.58223,10.1561 3.44291,14.1152 4.241,16.1652 c 0.31298,0.7511 0.6729,1.1111 1.09542,1.0798 0.65724,-0.047 1.43968,-0.9546 2.36296,-2.7229 0.48511,-1.0016 1.23626,-2.5038 2.25343,-4.5069 0.84499,2.9576 2.00299,5.1798 3.45839,6.6664 0.4069,0.4225 0.8294,0.6103 1.2362,0.579 0.36,-0.0313 0.6416,-0.2191 0.8294,-0.5634 0.1565,-0.2973 0.2191,-0.6416 0.1878,-1.0328 -0.0939,-1.424 0.047,-3.4114 0.4382,-5.96216 0.4068,-2.62899 0.9076,-4.5225 1.5179,-5.64921 C 17.7459,3.8183 17.7928,3.58356 17.7772,3.30189 17.7459,2.94196 17.5894,2.64464 17.2921,2.40991 16.9948,2.17518 16.6661,2.06564 16.3062,2.09693 15.8524,2.12823 15.5081,2.34731 15.2734,2.78548 14.3032,4.55379 13.6146,7.41752 13.2078,11.3923 12.6131,9.89003 12.1123,8.12171 11.7211,6.04042 11.549,5.11715 11.1265,4.67898 10.4379,4.72593 9.96845,4.75722 9.57724,5.0702 9.26426,5.66485 L 5.83718,12.1904 C 5.27382,9.92132 4.74176,7.15149 4.25665,3.88089 4.14711,3.06716 3.69329,2.69158 2.89521,2.75418 Z M 33.0504,3.88094 c 1.1111,0.23474 1.9405,0.82939 2.5038,1.81526 0.5008,0.84504 0.7511,1.86221 0.7511,3.08281 0,1.61179 -0.4068,3.08279 -1.2206,4.42859 -0.9389,1.5649 -2.1595,2.3473 -3.6774,2.3473 -0.266,0 -0.5477,-0.0313 -0.8451,-0.0939 -1.111,-0.2347 -1.9404,-0.8293 -2.5038,-1.8152 -0.5007,-0.8607 -0.7511,-1.8935 -0.7511,-3.0985 0,-1.6118 0.4069,-3.08279 1.2206,-4.41293 0.9546,-1.56488 2.1752,-2.34732 3.6775,-2.34732 0.266,0 0.5477,0.0313 0.845,0.09389 z m -0.6572,8.46596 c 0.579,-0.5164 0.9702,-1.2832 1.1893,-2.316 0.0626,-0.35991 0.1095,-0.75113 0.1095,-1.158 0,-0.45381 -0.0939,-0.93892 -0.2817,-1.42404 -0.2347,-0.6103 -0.5477,-0.93892 -0.9233,-1.01717 -0.5633,-0.10954 -1.111,0.20344 -1.6274,0.97023 -0.4225,0.59465 -0.6886,1.2206 -0.8294,1.8622 -0.0783,0.35993 -0.1096,0.75118 -0.1096,1.14238 0,0.4538 0.0939,0.9389 0.2817,1.424 0.2348,0.6103 0.5477,0.9389 0.9233,1.0172 0.3912,0.0782 0.8137,-0.0939 1.2676,-0.5008 z M 25.7424,5.6962 C 25.179,4.71033 24.334,4.11568 23.2386,3.88094 22.9412,3.81835 22.6596,3.78705 22.3935,3.78705 c -1.5022,0 -2.7228,0.78244 -3.6774,2.34732 -0.8138,1.33014 -1.2206,2.80113 -1.2206,4.41293 0,1.205 0.2504,2.2378 0.7511,3.0985 0.5634,0.9859 1.3928,1.5805 2.5038,1.8152 0.2973,0.0626 0.579,0.0939 0.8451,0.0939 1.5179,0 2.7385,-0.7824 3.6774,-2.3473 0.8138,-1.3458 1.2206,-2.8168 1.2206,-4.42859 0,-1.2206 -0.2504,-2.23777 -0.7511,-3.08281 z m -1.9718,4.3347 c -0.219,1.0328 -0.6103,1.7996 -1.1893,2.316 -0.4538,0.4069 -0.8763,0.579 -1.2675,0.5008 -0.3756,-0.0783 -0.6886,-0.4069 -0.9233,-1.0172 -0.1878,-0.4851 -0.2817,-0.9702 -0.2817,-1.424 0,-0.3912 0.0313,-0.78245 0.1096,-1.14238 0.1408,-0.6416 0.4068,-1.26755 0.8293,-1.8622 0.5165,-0.76679 1.0642,-1.07977 1.6275,-0.97023 0.3756,0.07825 0.6886,0.40687 0.9233,1.01717 0.1878,0.48512 0.2817,0.97023 0.2817,1.42404 0,0.40687 -0.0313,0.79809 -0.1096,1.158 z"
         fill="#7f54b3"
         id="path833" />
      <path
         d="m 42.2362,5.55528 c -1.0485,1.03282 -1.5649,2.34731 -1.5649,3.94349 0,1.70573 0.5164,3.09843 1.5493,4.14693 1.0328,1.0485 2.3786,1.5805 4.053,1.5805 0.4851,0 1.0328,-0.0782 1.6275,-0.2504 v -2.5351 c -0.5477,0.1565 -1.0172,0.2348 -1.4241,0.2348 -0.8294,0 -1.4866,-0.2817 -1.9874,-0.8294 -0.5007,-0.5634 -0.7511,-1.3145 -0.7511,-2.26909 0,-0.89198 0.2504,-1.62747 0.7355,-2.19083 0.5007,-0.579 1.111,-0.86068 1.8622,-0.86068 0.4851,0 1.0015,0.07824 1.5649,0.23473 V 4.22513 C 47.3847,4.08429 46.8057,4.02169 46.1953,4.02169 44.5992,4.00604 43.2847,4.52246 42.2362,5.55528 Z M 53.0965,4.00604 c -1.4397,0 -2.5664,0.48512 -3.3802,1.43969 -0.8137,0.95458 -1.2049,2.30038 -1.2049,4.02174 0,1.86223 0.4068,3.28623 1.2049,4.27213 0.7981,0.9859 1.9718,1.4866 3.5054,1.4866 1.4866,0 2.6289,-0.5007 3.427,-1.4866 0.7981,-0.9859 1.205,-2.3786 1.205,-4.16259 0,-1.78396 -0.4069,-3.16105 -1.2206,-4.13128 C 55.8037,4.49116 54.63,4.00604 53.0965,4.00604 Z m 1.2362,8.13736 c -0.2817,0.4382 -0.7042,0.6573 -1.2362,0.6573 -0.5008,0 -0.8764,-0.2191 -1.1424,-0.6573 -0.266,-0.4382 -0.3912,-1.3145 -0.3912,-2.64463 0,-2.04999 0.5164,-3.06717 1.5649,-3.06717 1.0954,0 1.6587,1.03283 1.6587,3.11412 -0.0156,1.28318 -0.1721,2.15948 -0.4538,2.59768 z M 65.5842,4.30337 65.0208,6.69764 C 64.88,7.30794 64.7392,7.93389 64.614,8.57549 L 64.301,10.2343 C 64.0037,8.57549 63.5968,6.60374 63.0804,4.30337 H 59.4499 L 58.0884,14.9602 h 2.7229 l 0.7355,-7.33929 1.8622,7.33929 h 1.9405 l 1.7839,-7.32364 0.7668,7.32364 h 2.8481 L 69.3086,4.30337 Z m 13.0354,0 -0.5633,2.39427 c -0.1409,0.6103 -0.2817,1.23625 -0.4069,1.87785 l -0.313,1.65881 C 77.0391,8.57549 76.6322,6.60374 76.1158,4.30337 H 72.4853 L 71.1239,14.9602 h 2.7228 l 0.7355,-7.33929 1.8622,7.33929 h 1.9405 L 80.1532,7.63656 80.92,14.9602 h 2.8481 L 82.3284,4.30337 Z m 8.8572,6.44733 h 2.5508 V 8.54419 h -2.5508 v -1.9561 h 2.942 V 4.31902 H 84.5975 V 14.9758 h 5.837 v -2.269 H 87.4768 Z M 98.5405,9.0606 C 98.8379,8.57549 98.9943,8.07473 98.9943,7.55832 98.9943,6.5568 98.6031,5.75871 97.8207,5.1797 97.0382,4.6007 95.9585,4.30337 94.6127,4.30337 H 91.2638 V 14.9602 h 2.8794 v -4.8511 h 0.047 l 2.3316,4.8511 h 3.0359 L 97.2573,10.156 C 97.805,9.90564 98.2432,9.54571 98.5405,9.0606 Z M 94.1276,8.88846 v -2.5351 c 0.6885,0.01565 1.1736,0.12519 1.471,0.34428 0.2973,0.21908 0.4381,0.56335 0.4381,1.06411 0,0.73549 -0.6416,1.11107 -1.9091,1.12671 z m 6.5564,-3.33318 c -1.0481,1.03282 -1.5645,2.34731 -1.5645,3.94349 0,1.70573 0.5164,3.09843 1.5495,4.14693 1.033,1.0485 2.378,1.5805 4.053,1.5805 0.485,0 1.033,-0.0782 1.627,-0.2504 v -2.5351 c -0.547,0.1565 -1.017,0.2348 -1.424,0.2348 -0.829,0 -1.486,-0.2817 -1.987,-0.8294 -0.501,-0.5634 -0.751,-1.3145 -0.751,-2.26909 0,-0.89198 0.25,-1.62747 0.735,-2.19083 0.501,-0.579 1.111,-0.86068 1.862,-0.86068 0.485,0 1.002,0.07824 1.565,0.23473 v -2.5351 c -0.516,-0.14084 -1.095,-0.20344 -1.705,-0.20344 -1.581,-0.01565 -2.911,0.50077 -3.96,1.53359 z m 9.343,7.12022 V 10.735 h 2.55 V 8.52854 h -2.55 V 6.57245 h 2.957 V 4.30337 h -5.821 V 14.9602 H 113 v -2.2691 h -2.973 z"
         fill="#000000"
         id="path835" />
    </g>
    <g
       transform="matrix(0.07559523,0,0,0.07559523,29.605757,-2.1774989)"
       fill="#f12e45"
       id="g859">
      <path
         d="m -195.9,385.8 h -8.8 c -0.2,0 -0.4,0.2 -0.4,0.4 v 5.1 c 0,0.2 0.2,0.4 0.4,0.4 h 8.8 c 0.2,0 0.4,-0.2 0.4,-0.4 v -5.1 c 0.1,-0.2 -0.1,-0.4 -0.4,-0.4 z m -0.1,7.6 h -17 c -0.2,0 -0.5,0.2 -0.6,0.4 l -2.2,8.3 -0.1,0.4 -2.6,-8.9 c -0.1,-0.2 -0.3,-0.4 -0.6,-0.4 h -6.6 c -0.2,0 -0.5,0.2 -0.6,0.4 l -2.5,8.3 -0.1,0.4 -0.1,-0.2 -1,-4.1 -1.1,-4.1 c -0.1,-0.2 -0.3,-0.4 -0.6,-0.4 H -245 v -7.2 c 0,-0.2 -0.3,-0.5 -0.6,-0.4 l -8.4,2.6 c -0.3,0.1 -0.4,0.2 -0.4,0.4 v 4.5 h -2.2 c -0.2,0 -0.4,0.2 -0.4,0.4 v 6.4 c 0,0.2 0.2,0.4 0.4,0.4 h 2.2 v 7.8 c 0,5.5 3,8.1 8.5,8.1 2.3,0 4.5,-0.5 6,-1.3 v -6.6 c 0,-0.3 -0.3,-0.4 -0.5,-0.4 -0.9,0.4 -1.6,0.5 -2.4,0.5 -1.5,0 -2.3,-0.6 -2.3,-2.3 v -5.7 h 4.8 c 0.2,0 0.4,-0.2 0.4,-0.4 v -5.4 l 6.3,20.9 c 0.1,0.2 0.3,0.4 0.6,0.4 h 7 c 0.2,0 0.5,-0.2 0.6,-0.4 l 3,-9.3 1.5,4.8 1.4,4.4 c 0.1,0.2 0.3,0.4 0.6,0.4 h 7 c 0.2,0 0.5,-0.2 0.6,-0.4 l 6.4,-21 v 21 c 0,0.2 0.2,0.4 0.4,0.4 h 8.5 c 0.2,0 0.4,-0.2 0.4,-0.4 v -21.8 c 0,-0.3 -0.2,-0.5 -0.4,-0.5 z m 11.2,-7.6 h -8.5 c -0.2,0 -0.4,0.2 -0.4,0.4 v 29.5 c 0,0.2 0.2,0.4 0.4,0.4 h 8.5 c 0.2,0 0.4,-0.2 0.4,-0.4 v -29.5 c 0,-0.2 -0.2,-0.4 -0.4,-0.4 z m 11.3,0 h -8.8 c -0.2,0 -0.4,0.2 -0.4,0.4 v 5.1 c 0,0.2 0.2,0.4 0.4,0.4 h 8.8 c 0.2,0 0.4,-0.2 0.4,-0.4 v -5.1 c 0.1,-0.2 -0.1,-0.4 -0.4,-0.4 z m -0.1,7.6 h -8.5 c -0.2,0 -0.4,0.2 -0.4,0.4 v 21.9 c 0,0.2 0.2,0.4 0.4,0.4 h 8.5 c 0.2,0 0.4,-0.2 0.4,-0.4 v -21.8 c 0,-0.3 -0.2,-0.5 -0.4,-0.5 z m 14.1,-0.5 c -7.5,0 -12.8,5.5 -12.8,11.9 v 0.1 c 0,6.4 5.3,11.8 12.7,11.8 7.5,0 12.8,-5.5 12.8,-11.9 v -0.1 c 0,-6.4 -5.3,-11.8 -12.7,-11.8 z m 3.6,11.9 c 0,2.2 -1.5,3.9 -3.6,3.9 -2.1,0 -3.7,-1.8 -3.7,-4 v -0.1 c 0,-2.2 1.5,-3.9 3.6,-3.9 2.1,0 3.7,1.8 3.7,4.1 z M -288,376 c -13.8,0 -25,11.2 -25,25 0,13.8 11.2,25 25,25 13.8,0 25,-11.2 25,-25 0,-13.8 -11.2,-25 -25,-25 z m 0,43.4 c -10.2,0 -18.4,-8.2 -18.4,-18.4 0,-10.2 8.2,-18.4 18.4,-18.4 10.2,0 18.4,8.2 18.4,18.4 0,10.2 -8.2,18.4 -18.4,18.4 z"
         id="path849" />
      <circle
         cx="-281.79999"
         cy="394.79999"
         r="5.1999998"
         id="circle851" />
      <circle
         cx="-281.79999"
         cy="407.20001"
         r="5.1999998"
         id="circle853" />
      <circle
         cx="-294.20001"
         cy="407.20001"
         r="5.1999998"
         id="circle855" />
      <circle
         cx="-294.20001"
         cy="394.79999"
         r="5.1999998"
         id="circle857" />
    </g>
    <g
       transform="matrix(1.4620926,0,0,1.4620926,19.799957,24.031654)"
       id="g889"
       style="fill-rule:evenodd">
      <g
         transform="matrix(1.0755,0,0,1.0755,-3.5103,-1.6684)"
         id="g877">
		<path
   fill="#464342"
   d="m 5.8465,1.9131 c 0.57932,0 1.1068,0.222 1.5022,0.58547 -0.1938,-0.0052 -0.3872,0.11 -0.3952,0.3738 -0.0163,0.5333 0.6377,0.6469 0.2853,1.7196 L 6.9473,5.47927 6.1534,3.14067 c -0.0123,-0.0362 0.002,-0.0568 0.0465,-0.0568 h 0.22445 c 0.011665,0 0.021201,-0.00996 0.021201,-0.022158 v -0.13294 c 0,-0.012193 -0.00956,-0.022657 -0.021201,-0.022153 -0.42505,0.018587 -0.8476,0.018713 -1.2676,0 -0.0117,-5e-4 -0.0212,0.01 -0.0212,0.0222 v 0.13294 c 0,0.012185 0.00954,0.022158 0.021201,0.022158 h 0.22568 c 0.050201,0 0.064256,0.016728 0.076091,0.049087 l 0.3262,0.8921 -0.4907,1.4817 -0.8066,-2.3758 c -0.01,-0.0298 0.0021,-0.0471 0.0308,-0.0471 h 0.25715 c 0.011661,0 0.021197,-0.00996 0.021197,-0.022158 v -0.13294 c 0,-0.012193 -0.00957,-0.022764 -0.021197,-0.022153 -0.2698,0.014331 -0.54063,0.017213 -0.79291,0.019803 0.39589,-0.60984 1.0828,-1.0134 1.8639,-1.0134 l -2.9e-6,-6.2e-6 z m 1.9532,1.1633 c 0.17065,0.31441 0.26755,0.67464 0.26755,1.0574 0,0.84005 -0.46675,1.5712 -1.1549,1.9486 l 0.6926,-1.9617 c 0.1073,-0.3036 0.2069,-0.7139 0.1947,-1.0443 h -4e-6 z M 6.59,6.2268 C 6.3575,6.3095 6.1073,6.3546 5.8465,6.3546 5.6218,6.3546 5.405,6.3211 5.2006,6.2591 L 5.88475,4.2985 6.58999,6.2269 v -10e-8 z M 4.8962,6.1414 C 4.14519,5.78523 3.6257,5.0201 3.6257,4.1339 c 0,-0.32852 0.071465,-0.64038 0.19955,-0.92096 l 1.071,2.9285 3e-6,-3e-6 z M 5.84643,1.7047 c 1.3413,0 2.4291,1.0878 2.4291,2.4291 0,1.3413 -1.0878,2.4291 -2.4291,2.4291 -1.3413,0 -2.4291,-1.0878 -2.4291,-2.4291 0,-1.3413 1.0878,-2.4291 2.4291,-2.4291 z m 0,-0.15354 c 1.4261,0 2.5827,1.1566 2.5827,2.5827 0,1.4261 -1.1566,2.5827 -2.5827,2.5827 -1.4261,0 -2.5827,-1.1566 -2.5827,-2.5827 0,-1.4261 1.1566,-2.5827 2.5827,-2.5827 z"
   id="path875" />

	</g>
    </g>
    <text
       transform="translate(36.563778,-99.502232)"
       style="font-size:6.35px;line-height:1.25;font-family:sans-serif;letter-spacing:0px;word-spacing:0px;white-space:pre;shape-inside:url(#rect893);fill:#ff6600;"
       id="text891"
       xml:space="preserve"><tspan
         x="-24.191406"
         y="105.99772"><tspan
           style="font-style:normal;font-variant:normal;font-weight:normal;font-stretch:normal;font-size:6.35px;font-family:'Baskerville Old Face';-inkscape-font-specification:'Baskerville Old Face';fill:#ff6600">TG</tspan></tspan></text>
    <text
       xml:space="preserve"
       id="text933"
       style="font-size:6.35px;line-height:1.25;font-family:sans-serif;letter-spacing:0px;word-spacing:0px;white-space:pre;shape-inside:url(#rect935);fill:#ff6600;"
       transform="translate(34.985579,-92.604167)"><tspan
         x="-24.191406"
         y="105.99772"><tspan
           style="font-style:normal;font-variant:normal;font-weight:normal;font-stretch:normal;font-size:6.35px;font-family:'Baskerville Old Face';-inkscape-font-specification:'Baskerville Old Face';fill:#ff6600">SMS</tspan></tspan></text>
    <text
       transform="translate(28.434817,-85.422619)"
       style="font-size:3.175px;line-height:1.25;font-family:sans-serif;letter-spacing:0px;word-spacing:0px;white-space:pre;shape-inside:url(#rect941);fill:#ff6600;"
       id="text939"
       xml:space="preserve"><tspan
         x="-24.191406"
         y="103.08089"><tspan
           style="font-style:normal;font-variant:normal;font-weight:normal;font-stretch:normal;font-size:3.175px;font-family:'Baskerville Old Face';-inkscape-font-specification:'Baskerville Old Face';fill:#ff6600">NOTIFICATIONS</tspan></tspan></text>
  </g>
</svg>
